<?xml version="1.0" standalone="no"?><!DOCTYPE svg PUBLIC "-//W3C//DTD SVG 1.1//EN" "http://www.w3.org/Graphics/SVG/1.1/DTD/svg11.dtd"><svg t="1740151433527" class="icon" viewBox="0 0 1024 1024" version="1.1" xmlns="http://www.w3.org/2000/svg" p-id="18524" xmlns:xlink="http://www.w3.org/1999/xlink" width="256" height="256"><path d="M334.904889 795.107556c-90.88-5.347556-162.929778-80.497778-162.929778-172.430223v-264.533333a129.763556 129.763556 0 0 1 129.934222-129.564444h420.181334a129.763556 129.763556 0 0 1 129.934222 129.564444v177.066667a129.763556 129.763556 0 0 1-129.934222 129.564444h-361.528889a14.222222 14.222222 0 0 0-14.222222 14.222222v57.912889a14.222222 14.222222 0 0 0 14.222222 14.222222h361.528889c119.608889 0 216.576-96.654222 216.576-215.893333V358.115556C938.666667 238.933333 841.699556 142.222222 722.090667 142.222222H301.909333C182.328889 142.222222 85.333333 238.904889 85.333333 358.144v264.533333c0 138.069333 108.316444 250.908444 244.878223 258.673778l1.308444 0.056889a14.222222 14.222222 0 0 0 14.791111-14.222222V807.253333a12.145778 12.145778 0 0 0-11.406222-12.117333z" fill="#1677FF" p-id="18525"></path><path d="M668.444444 440.888889m-71.111111 0a71.111111 71.111111 0 1 0 142.222223 0 71.111111 71.111111 0 1 0-142.222223 0Z" fill="#1677FF" p-id="18526"></path><path d="M355.555556 440.888889m-71.111112 0a71.111111 71.111111 0 1 0 142.222223 0 71.111111 71.111111 0 1 0-142.222223 0Z" fill="#1677FF" p-id="18527"></path></svg>